<mxfile host="app.diagrams.net" modified="2021-04-26T08:38:44.258Z" agent="5.0 (Macintosh; Intel Mac OS X 10_15_7) AppleWebKit/537.36 (KHTML, like Gecko) Chrome/90.0.4430.85 Safari/537.36" etag="PeObd96srkRgw6ddRsXQ" version="14.6.6" type="github">
  <diagram id="bXwVD6ywDrlLAVm8X_Z4" name="Page-1">
    <mxGraphModel dx="946" dy="458" grid="1" gridSize="10" guides="1" tooltips="1" connect="1" arrows="1" fold="1" page="1" pageScale="1" pageWidth="827" pageHeight="1169" math="0" shadow="0">
      <root>
        <mxCell id="0" />
        <mxCell id="1" parent="0" />
        <mxCell id="bIrODpHyJd9pbExji8rB-1" value="" style="verticalLabelPosition=bottom;verticalAlign=top;html=1;shape=mxgraph.flowchart.on-page_reference;" vertex="1" parent="1">
          <mxGeometry x="370" y="280" width="40" height="40" as="geometry" />
        </mxCell>
        <mxCell id="bIrODpHyJd9pbExji8rB-2" value="" style="verticalLabelPosition=bottom;verticalAlign=top;html=1;shape=mxgraph.flowchart.on-page_reference;fillColor=#d5e8d4;strokeColor=#82b366;" vertex="1" parent="1">
          <mxGeometry x="330" y="340" width="40" height="40" as="geometry" />
        </mxCell>
        <mxCell id="bIrODpHyJd9pbExji8rB-3" value="" style="verticalLabelPosition=bottom;verticalAlign=top;html=1;shape=mxgraph.flowchart.on-page_reference;fillColor=#d5e8d4;strokeColor=#82b366;" vertex="1" parent="1">
          <mxGeometry x="410" y="340" width="40" height="40" as="geometry" />
        </mxCell>
        <mxCell id="bIrODpHyJd9pbExji8rB-4" value="" style="endArrow=classic;html=1;entryX=0.5;entryY=0;entryDx=0;entryDy=0;entryPerimeter=0;exitX=0.5;exitY=1;exitDx=0;exitDy=0;exitPerimeter=0;" edge="1" parent="1" source="bIrODpHyJd9pbExji8rB-1" target="bIrODpHyJd9pbExji8rB-3">
          <mxGeometry width="50" height="50" relative="1" as="geometry">
            <mxPoint x="380" y="330" as="sourcePoint" />
            <mxPoint x="430" y="280" as="targetPoint" />
          </mxGeometry>
        </mxCell>
        <mxCell id="bIrODpHyJd9pbExji8rB-5" value="" style="endArrow=classic;html=1;entryX=0.5;entryY=0;entryDx=0;entryDy=0;entryPerimeter=0;" edge="1" parent="1" target="bIrODpHyJd9pbExji8rB-2">
          <mxGeometry width="50" height="50" relative="1" as="geometry">
            <mxPoint x="390" y="320" as="sourcePoint" />
            <mxPoint x="430" y="280" as="targetPoint" />
          </mxGeometry>
        </mxCell>
        <mxCell id="bIrODpHyJd9pbExji8rB-6" value="..." style="text;html=1;strokeColor=none;fillColor=none;align=center;verticalAlign=middle;whiteSpace=wrap;rounded=0;" vertex="1" parent="1">
          <mxGeometry x="370" y="350" width="40" height="20" as="geometry" />
        </mxCell>
        <mxCell id="bIrODpHyJd9pbExji8rB-7" value="" style="rounded=0;whiteSpace=wrap;html=1;glass=0;fillColor=none;" vertex="1" parent="1">
          <mxGeometry x="240" y="260" width="320" height="140" as="geometry" />
        </mxCell>
        <mxCell id="bIrODpHyJd9pbExji8rB-9" value="" style="shape=message;html=1;whiteSpace=wrap;html=1;outlineConnect=0;glass=0;fillColor=none;" vertex="1" parent="1">
          <mxGeometry x="280" y="110" width="50" height="30" as="geometry" />
        </mxCell>
        <mxCell id="bIrODpHyJd9pbExji8rB-10" value="" style="verticalLabelPosition=bottom;verticalAlign=top;html=1;shape=mxgraph.flowchart.on-page_reference;" vertex="1" parent="1">
          <mxGeometry x="430" y="110" width="40" height="40" as="geometry" />
        </mxCell>
        <mxCell id="bIrODpHyJd9pbExji8rB-11" value="" style="verticalLabelPosition=bottom;verticalAlign=top;html=1;shape=mxgraph.flowchart.on-page_reference;fillColor=#d5e8d4;strokeColor=#82b366;" vertex="1" parent="1">
          <mxGeometry x="390" y="170" width="40" height="40" as="geometry" />
        </mxCell>
        <mxCell id="bIrODpHyJd9pbExji8rB-12" value="" style="verticalLabelPosition=bottom;verticalAlign=top;html=1;shape=mxgraph.flowchart.on-page_reference;" vertex="1" parent="1">
          <mxGeometry x="470" y="170" width="40" height="40" as="geometry" />
        </mxCell>
        <mxCell id="bIrODpHyJd9pbExji8rB-13" value="" style="endArrow=classic;html=1;entryX=0.5;entryY=0;entryDx=0;entryDy=0;entryPerimeter=0;exitX=0.5;exitY=1;exitDx=0;exitDy=0;exitPerimeter=0;" edge="1" parent="1" source="bIrODpHyJd9pbExji8rB-10" target="bIrODpHyJd9pbExji8rB-12">
          <mxGeometry width="50" height="50" relative="1" as="geometry">
            <mxPoint x="440" y="160" as="sourcePoint" />
            <mxPoint x="490" y="110" as="targetPoint" />
          </mxGeometry>
        </mxCell>
        <mxCell id="bIrODpHyJd9pbExji8rB-14" value="" style="endArrow=classic;html=1;entryX=0.5;entryY=0;entryDx=0;entryDy=0;entryPerimeter=0;" edge="1" parent="1" target="bIrODpHyJd9pbExji8rB-11">
          <mxGeometry width="50" height="50" relative="1" as="geometry">
            <mxPoint x="450" y="150" as="sourcePoint" />
            <mxPoint x="490" y="110" as="targetPoint" />
          </mxGeometry>
        </mxCell>
        <mxCell id="bIrODpHyJd9pbExji8rB-15" value="..." style="text;html=1;strokeColor=none;fillColor=none;align=center;verticalAlign=middle;whiteSpace=wrap;rounded=0;" vertex="1" parent="1">
          <mxGeometry x="430" y="180" width="40" height="20" as="geometry" />
        </mxCell>
        <mxCell id="bIrODpHyJd9pbExji8rB-22" value="" style="rounded=0;whiteSpace=wrap;html=1;glass=0;fillColor=none;" vertex="1" parent="1">
          <mxGeometry x="360" y="80" width="200" height="140" as="geometry" />
        </mxCell>
        <mxCell id="bIrODpHyJd9pbExji8rB-23" value="" style="endArrow=none;html=1;entryX=0.1;entryY=0.007;entryDx=0;entryDy=0;entryPerimeter=0;" edge="1" parent="1" target="bIrODpHyJd9pbExji8rB-22">
          <mxGeometry width="50" height="50" relative="1" as="geometry">
            <mxPoint x="381" y="221" as="sourcePoint" />
            <mxPoint x="382" y="120" as="targetPoint" />
          </mxGeometry>
        </mxCell>
        <mxCell id="bIrODpHyJd9pbExji8rB-36" value="" style="rounded=0;whiteSpace=wrap;html=1;glass=0;fillColor=none;" vertex="1" parent="1">
          <mxGeometry x="350" y="70" width="470" height="160" as="geometry" />
        </mxCell>
        <mxCell id="bIrODpHyJd9pbExji8rB-37" value="" style="shape=note;whiteSpace=wrap;html=1;backgroundOutline=1;darkOpacity=0.05;glass=0;fillColor=none;" vertex="1" parent="1">
          <mxGeometry x="250" y="295" width="50" height="70" as="geometry" />
        </mxCell>
        <mxCell id="bIrODpHyJd9pbExji8rB-39" value="" style="shape=cylinder3;whiteSpace=wrap;html=1;boundedLbl=1;backgroundOutline=1;size=15;glass=0;fillColor=none;" vertex="1" parent="1">
          <mxGeometry x="150" y="87.5" width="40" height="50" as="geometry" />
        </mxCell>
        <mxCell id="bIrODpHyJd9pbExji8rB-40" value="" style="rounded=0;whiteSpace=wrap;html=1;glass=0;fillColor=none;" vertex="1" parent="1">
          <mxGeometry x="120" y="152.5" width="100" height="40" as="geometry" />
        </mxCell>
        <mxCell id="bIrODpHyJd9pbExji8rB-41" value="MI" style="text;html=1;strokeColor=none;fillColor=none;align=center;verticalAlign=middle;whiteSpace=wrap;rounded=0;glass=0;" vertex="1" parent="1">
          <mxGeometry x="150" y="97.5" width="40" height="20" as="geometry" />
        </mxCell>
        <mxCell id="bIrODpHyJd9pbExji8rB-42" value="MI" style="text;html=1;strokeColor=none;fillColor=none;align=center;verticalAlign=middle;whiteSpace=wrap;rounded=0;glass=0;" vertex="1" parent="1">
          <mxGeometry x="120" y="162.5" width="40" height="20" as="geometry" />
        </mxCell>
        <mxCell id="bIrODpHyJd9pbExji8rB-43" value="&amp;nbsp; &amp;nbsp;Idle" style="text;html=1;strokeColor=none;fillColor=none;align=center;verticalAlign=middle;whiteSpace=wrap;rounded=0;glass=0;" vertex="1" parent="1">
          <mxGeometry x="170" y="162.5" width="40" height="20" as="geometry" />
        </mxCell>
        <mxCell id="bIrODpHyJd9pbExji8rB-44" value="" style="endArrow=none;html=1;exitX=0.5;exitY=1;exitDx=0;exitDy=0;entryX=0.5;entryY=0;entryDx=0;entryDy=0;" edge="1" parent="1" source="bIrODpHyJd9pbExji8rB-40" target="bIrODpHyJd9pbExji8rB-40">
          <mxGeometry width="50" height="50" relative="1" as="geometry">
            <mxPoint x="350" y="212.5" as="sourcePoint" />
            <mxPoint x="400" y="162.5" as="targetPoint" />
          </mxGeometry>
        </mxCell>
        <mxCell id="bIrODpHyJd9pbExji8rB-45" value="" style="endArrow=classic;html=1;entryX=0.5;entryY=1;entryDx=0;entryDy=0;entryPerimeter=0;exitX=0;exitY=0.5;exitDx=0;exitDy=0;" edge="1" parent="1" source="bIrODpHyJd9pbExji8rB-22" target="bIrODpHyJd9pbExji8rB-39">
          <mxGeometry width="50" height="50" relative="1" as="geometry">
            <mxPoint x="360" y="170" as="sourcePoint" />
            <mxPoint x="440" y="150" as="targetPoint" />
          </mxGeometry>
        </mxCell>
        <mxCell id="bIrODpHyJd9pbExji8rB-46" value="" style="rounded=0;whiteSpace=wrap;html=1;glass=0;fillColor=none;" vertex="1" parent="1">
          <mxGeometry x="105" y="62.5" width="130" height="140" as="geometry" />
        </mxCell>
        <mxCell id="bIrODpHyJd9pbExji8rB-47" value="reduce" style="text;html=1;strokeColor=none;fillColor=none;align=center;verticalAlign=middle;whiteSpace=wrap;rounded=0;glass=0;" vertex="1" parent="1">
          <mxGeometry x="285" y="122.5" width="40" height="17.5" as="geometry" />
        </mxCell>
        <mxCell id="bIrODpHyJd9pbExji8rB-48" value="" style="endArrow=classic;html=1;entryX=0.5;entryY=1;entryDx=0;entryDy=0;exitX=0.5;exitY=0;exitDx=0;exitDy=0;" edge="1" parent="1" source="bIrODpHyJd9pbExji8rB-49" target="bIrODpHyJd9pbExji8rB-22">
          <mxGeometry width="50" height="50" relative="1" as="geometry">
            <mxPoint x="440" y="250" as="sourcePoint" />
            <mxPoint x="440" y="150" as="targetPoint" />
          </mxGeometry>
        </mxCell>
        <mxCell id="bIrODpHyJd9pbExji8rB-49" value="" style="rounded=0;whiteSpace=wrap;html=1;glass=0;fillColor=none;" vertex="1" parent="1">
          <mxGeometry x="320" y="270" width="140" height="120" as="geometry" />
        </mxCell>
        <mxCell id="bIrODpHyJd9pbExji8rB-50" value="" style="endArrow=classic;html=1;entryX=0.5;entryY=1;entryDx=0;entryDy=0;exitX=0.5;exitY=0;exitDx=0;exitDy=0;" edge="1" parent="1" source="bIrODpHyJd9pbExji8rB-49" target="bIrODpHyJd9pbExji8rB-79">
          <mxGeometry width="50" height="50" relative="1" as="geometry">
            <mxPoint x="390" y="220" as="sourcePoint" />
            <mxPoint x="680" y="220" as="targetPoint" />
          </mxGeometry>
        </mxCell>
        <mxCell id="bIrODpHyJd9pbExji8rB-51" value="" style="endArrow=none;html=1;entryX=0.994;entryY=0.136;entryDx=0;entryDy=0;entryPerimeter=0;" edge="1" parent="1" target="bIrODpHyJd9pbExji8rB-22">
          <mxGeometry width="50" height="50" relative="1" as="geometry">
            <mxPoint x="380" y="99" as="sourcePoint" />
            <mxPoint x="430" y="150" as="targetPoint" />
          </mxGeometry>
        </mxCell>
        <mxCell id="bIrODpHyJd9pbExji8rB-52" value="CiMPG: generateProof" style="text;html=1;strokeColor=none;fillColor=none;align=center;verticalAlign=middle;whiteSpace=wrap;rounded=0;glass=0;" vertex="1" parent="1">
          <mxGeometry x="410" y="80" width="130" height="20" as="geometry" />
        </mxCell>
        <mxCell id="bIrODpHyJd9pbExji8rB-55" value="restrict(1)" style="text;html=1;strokeColor=none;fillColor=none;align=center;verticalAlign=middle;whiteSpace=wrap;rounded=0;glass=0;" vertex="1" parent="1">
          <mxGeometry x="374" y="230" width="40" height="20" as="geometry" />
        </mxCell>
        <mxCell id="bIrODpHyJd9pbExji8rB-56" value="restrict(n)" style="text;html=1;strokeColor=none;fillColor=none;align=center;verticalAlign=middle;whiteSpace=wrap;rounded=0;glass=0;" vertex="1" parent="1">
          <mxGeometry x="550" y="240" width="40" height="20" as="geometry" />
        </mxCell>
        <mxCell id="bIrODpHyJd9pbExji8rB-58" value="" style="endArrow=classic;html=1;exitX=0.5;exitY=1;exitDx=0;exitDy=0;exitPerimeter=0;entryX=0;entryY=0;entryDx=10;entryDy=0;entryPerimeter=0;" edge="1" parent="1" source="bIrODpHyJd9pbExji8rB-39" target="bIrODpHyJd9pbExji8rB-37">
          <mxGeometry width="50" height="50" relative="1" as="geometry">
            <mxPoint x="390" y="190" as="sourcePoint" />
            <mxPoint x="440" y="140" as="targetPoint" />
          </mxGeometry>
        </mxCell>
        <mxCell id="bIrODpHyJd9pbExji8rB-59" value="" style="shape=message;html=1;whiteSpace=wrap;html=1;outlineConnect=0;glass=0;fillColor=none;" vertex="1" parent="1">
          <mxGeometry x="150" y="220" width="60" height="50" as="geometry" />
        </mxCell>
        <mxCell id="bIrODpHyJd9pbExji8rB-60" value=":sel(1)&lt;br&gt;..." style="text;html=1;strokeColor=none;fillColor=none;align=center;verticalAlign=middle;whiteSpace=wrap;rounded=0;glass=0;" vertex="1" parent="1">
          <mxGeometry x="160" y="245" width="40" height="20" as="geometry" />
        </mxCell>
        <mxCell id="bIrODpHyJd9pbExji8rB-62" value="1" style="text;html=1;strokeColor=none;fillColor=none;align=center;verticalAlign=middle;whiteSpace=wrap;rounded=0;glass=0;" vertex="1" parent="1">
          <mxGeometry x="350" y="150" width="40" height="20" as="geometry" />
        </mxCell>
        <mxCell id="bIrODpHyJd9pbExji8rB-64" value="" style="whiteSpace=wrap;html=1;shape=mxgraph.basic.isocube;isoAngle=15;glass=0;fillColor=none;" vertex="1" parent="1">
          <mxGeometry x="527.5" y="180" width="27.5" height="25" as="geometry" />
        </mxCell>
        <mxCell id="bIrODpHyJd9pbExji8rB-68" value="" style="whiteSpace=wrap;html=1;shape=mxgraph.basic.isocube;isoAngle=15;glass=0;fillColor=none;" vertex="1" parent="1">
          <mxGeometry x="527.5" y="115" width="27.5" height="25" as="geometry" />
        </mxCell>
        <mxCell id="bIrODpHyJd9pbExji8rB-71" value="" style="endArrow=none;html=1;entryX=0.8;entryY=0.993;entryDx=0;entryDy=0;entryPerimeter=0;exitX=0.838;exitY=0.95;exitDx=0;exitDy=0;exitPerimeter=0;" edge="1" parent="1" source="bIrODpHyJd9pbExji8rB-52" target="bIrODpHyJd9pbExji8rB-22">
          <mxGeometry width="50" height="50" relative="1" as="geometry">
            <mxPoint x="390" y="330" as="sourcePoint" />
            <mxPoint x="440" y="280" as="targetPoint" />
          </mxGeometry>
        </mxCell>
        <mxCell id="bIrODpHyJd9pbExji8rB-72" value="..." style="text;html=1;strokeColor=none;fillColor=none;align=center;verticalAlign=middle;whiteSpace=wrap;rounded=0;glass=0;" vertex="1" parent="1">
          <mxGeometry x="520" y="150" width="40" height="20" as="geometry" />
        </mxCell>
        <mxCell id="bIrODpHyJd9pbExji8rB-73" value="" style="verticalLabelPosition=bottom;verticalAlign=top;html=1;shape=mxgraph.flowchart.on-page_reference;" vertex="1" parent="1">
          <mxGeometry x="680" y="109" width="40" height="40" as="geometry" />
        </mxCell>
        <mxCell id="bIrODpHyJd9pbExji8rB-74" value="" style="verticalLabelPosition=bottom;verticalAlign=top;html=1;shape=mxgraph.flowchart.on-page_reference;" vertex="1" parent="1">
          <mxGeometry x="640" y="169" width="40" height="40" as="geometry" />
        </mxCell>
        <mxCell id="bIrODpHyJd9pbExji8rB-75" value="" style="verticalLabelPosition=bottom;verticalAlign=top;html=1;shape=mxgraph.flowchart.on-page_reference;fillColor=#d5e8d4;strokeColor=#82b366;" vertex="1" parent="1">
          <mxGeometry x="720" y="169" width="40" height="40" as="geometry" />
        </mxCell>
        <mxCell id="bIrODpHyJd9pbExji8rB-76" value="" style="endArrow=classic;html=1;entryX=0.5;entryY=0;entryDx=0;entryDy=0;entryPerimeter=0;exitX=0.5;exitY=1;exitDx=0;exitDy=0;exitPerimeter=0;" edge="1" parent="1" source="bIrODpHyJd9pbExji8rB-73" target="bIrODpHyJd9pbExji8rB-75">
          <mxGeometry width="50" height="50" relative="1" as="geometry">
            <mxPoint x="690" y="159" as="sourcePoint" />
            <mxPoint x="740" y="109" as="targetPoint" />
          </mxGeometry>
        </mxCell>
        <mxCell id="bIrODpHyJd9pbExji8rB-77" value="" style="endArrow=classic;html=1;entryX=0.5;entryY=0;entryDx=0;entryDy=0;entryPerimeter=0;" edge="1" parent="1" target="bIrODpHyJd9pbExji8rB-74">
          <mxGeometry width="50" height="50" relative="1" as="geometry">
            <mxPoint x="700" y="149" as="sourcePoint" />
            <mxPoint x="740" y="109" as="targetPoint" />
          </mxGeometry>
        </mxCell>
        <mxCell id="bIrODpHyJd9pbExji8rB-78" value="..." style="text;html=1;strokeColor=none;fillColor=none;align=center;verticalAlign=middle;whiteSpace=wrap;rounded=0;" vertex="1" parent="1">
          <mxGeometry x="680" y="179" width="40" height="20" as="geometry" />
        </mxCell>
        <mxCell id="bIrODpHyJd9pbExji8rB-79" value="" style="rounded=0;whiteSpace=wrap;html=1;glass=0;fillColor=none;" vertex="1" parent="1">
          <mxGeometry x="610" y="79" width="200" height="140" as="geometry" />
        </mxCell>
        <mxCell id="bIrODpHyJd9pbExji8rB-80" value="" style="endArrow=none;html=1;entryX=0.1;entryY=0.007;entryDx=0;entryDy=0;entryPerimeter=0;" edge="1" parent="1" target="bIrODpHyJd9pbExji8rB-79">
          <mxGeometry width="50" height="50" relative="1" as="geometry">
            <mxPoint x="631" y="220" as="sourcePoint" />
            <mxPoint x="632" y="110" as="targetPoint" />
          </mxGeometry>
        </mxCell>
        <mxCell id="bIrODpHyJd9pbExji8rB-81" value="" style="endArrow=none;html=1;entryX=0.994;entryY=0.136;entryDx=0;entryDy=0;entryPerimeter=0;" edge="1" parent="1" target="bIrODpHyJd9pbExji8rB-79">
          <mxGeometry width="50" height="50" relative="1" as="geometry">
            <mxPoint x="630" y="98" as="sourcePoint" />
            <mxPoint x="680" y="149" as="targetPoint" />
          </mxGeometry>
        </mxCell>
        <mxCell id="bIrODpHyJd9pbExji8rB-82" value="CiMPG: generateProof" style="text;html=1;strokeColor=none;fillColor=none;align=center;verticalAlign=middle;whiteSpace=wrap;rounded=0;glass=0;" vertex="1" parent="1">
          <mxGeometry x="660" y="79" width="130" height="20" as="geometry" />
        </mxCell>
        <mxCell id="bIrODpHyJd9pbExji8rB-83" value="n" style="text;html=1;strokeColor=none;fillColor=none;align=center;verticalAlign=middle;whiteSpace=wrap;rounded=0;glass=0;" vertex="1" parent="1">
          <mxGeometry x="600" y="149" width="40" height="20" as="geometry" />
        </mxCell>
        <mxCell id="bIrODpHyJd9pbExji8rB-84" value="" style="whiteSpace=wrap;html=1;shape=mxgraph.basic.isocube;isoAngle=15;glass=0;fillColor=none;" vertex="1" parent="1">
          <mxGeometry x="777.5" y="179" width="27.5" height="25" as="geometry" />
        </mxCell>
        <mxCell id="bIrODpHyJd9pbExji8rB-85" value="" style="whiteSpace=wrap;html=1;shape=mxgraph.basic.isocube;isoAngle=15;glass=0;fillColor=none;" vertex="1" parent="1">
          <mxGeometry x="777.5" y="114" width="27.5" height="25" as="geometry" />
        </mxCell>
        <mxCell id="bIrODpHyJd9pbExji8rB-86" value="" style="endArrow=none;html=1;entryX=0.8;entryY=0.993;entryDx=0;entryDy=0;entryPerimeter=0;exitX=0.838;exitY=0.95;exitDx=0;exitDy=0;exitPerimeter=0;" edge="1" parent="1" source="bIrODpHyJd9pbExji8rB-82" target="bIrODpHyJd9pbExji8rB-79">
          <mxGeometry width="50" height="50" relative="1" as="geometry">
            <mxPoint x="640" y="329" as="sourcePoint" />
            <mxPoint x="690" y="279" as="targetPoint" />
          </mxGeometry>
        </mxCell>
        <mxCell id="bIrODpHyJd9pbExji8rB-87" value="..." style="text;html=1;strokeColor=none;fillColor=none;align=center;verticalAlign=middle;whiteSpace=wrap;rounded=0;glass=0;" vertex="1" parent="1">
          <mxGeometry x="770" y="149" width="40" height="20" as="geometry" />
        </mxCell>
        <mxCell id="bIrODpHyJd9pbExji8rB-88" value="" style="shape=cube;whiteSpace=wrap;html=1;boundedLbl=1;backgroundOutline=1;darkOpacity=0.05;darkOpacity2=0.1;glass=0;fillColor=none;" vertex="1" parent="1">
          <mxGeometry x="475" y="307.5" width="75" height="45" as="geometry" />
        </mxCell>
        <mxCell id="bIrODpHyJd9pbExji8rB-89" value="" style="endArrow=classic;html=1;entryX=0.5;entryY=1;entryDx=0;entryDy=0;exitX=0;exitY=0;exitDx=27.5;exitDy=0;exitPerimeter=0;" edge="1" parent="1" source="bIrODpHyJd9pbExji8rB-88" target="bIrODpHyJd9pbExji8rB-22">
          <mxGeometry width="50" height="50" relative="1" as="geometry">
            <mxPoint x="390" y="330" as="sourcePoint" />
            <mxPoint x="440" y="280" as="targetPoint" />
          </mxGeometry>
        </mxCell>
        <mxCell id="bIrODpHyJd9pbExji8rB-90" value="" style="endArrow=classic;html=1;exitX=0;exitY=0;exitDx=27.5;exitDy=0;exitPerimeter=0;entryX=0.5;entryY=1;entryDx=0;entryDy=0;" edge="1" parent="1" source="bIrODpHyJd9pbExji8rB-88" target="bIrODpHyJd9pbExji8rB-79">
          <mxGeometry width="50" height="50" relative="1" as="geometry">
            <mxPoint x="390" y="330" as="sourcePoint" />
            <mxPoint x="440" y="280" as="targetPoint" />
          </mxGeometry>
        </mxCell>
      </root>
    </mxGraphModel>
  </diagram>
</mxfile>
